<?xml version="1.0" encoding="UTF-8" standalone="no"?>
<!-- Created with Inkscape (http://www.inkscape.org/) -->

<svg
   version="1.1"
   id="svg1"
   width="406"
   height="404"
   viewBox="0 0 406 404"
   xmlns="http://www.w3.org/2000/svg"
   xmlns:svg="http://www.w3.org/2000/svg">
  <defs
     id="defs1" />
  <g
     id="g1">
    <path
       style="fill:#eb598f;stroke:none"
       d="m 82.936589,34.268427 c -21.80352,4.23959 -39.40391,16.87839 -46.66667,38.66665 -2.87665,8.62998 -2.33333,18.00568 -2.33333,27 v 39.000003 137 c 0,23.06967 -4.565224,51.49646 10.33333,71 7.36321,9.6391 17.16843,16.83392 28.66667,20.66666 14.09396,4.69799 31.288311,2.33334 46.000001,2.33334 h 138 43 c 9.68143,0 19.51532,0.64264 29,-1.33334 20.04385,-4.17578 37.49084,-21.62284 41.66666,-41.66666 1.84628,-8.86212 1.33334,-17.9541 1.33334,-27 v -40 -129 c 0,-23.78598 5.02426,-53.895443 -10.33334,-74.000003 -9.85431,-12.9002 -24.41703,-21.42019 -40.66666,-23 -10.76736,-1.04681 -22.1745,0 -33,0 h -138 -44 c -7.388511,0 -15.747051,-1.07696 -23.000001,0.33335 m 117.000001,52.83331 c 6.99318,-1.06842 15.04221,1.7981 20,6.83334 2.58575,2.62616 3.25203,7.638343 7,8.833343 3.67288,1.17105 9.14598,0.16666 13,0.16666 13.59843,0 29.66977,-2.51224 42,4.16666 13.13464,7.11459 15,21.44888 15,34.83334 v 80 45 c 0,9.23065 0.79218,18.99777 -1.33334,28 -2.78675,11.80258 -13.34787,19.46579 -24.66666,21.66666 -11.24335,2.18621 -24.53531,0.33334 -36,0.33334 h -74 c -13.49561,0 -30.12534,2.66635 -41,-7 -13.353,-11.86932 -11,-29.70734 -11,-46 v -105 c 0,-14.09583 -3.09796,-33.6398 7,-45 12.61044,-14.186733 31.81555,-11 49,-11 4.1404,0 10.05638,1.09073 14,-0.16666 3.74799,-1.195 4.41425,-6.207183 7,-8.833343 3.65207,-3.70913 8.93724,-6.05987 14,-6.83334 m -31,21.833343 c 0,5.88785 -2.39795,18.60202 2,23 3.31146,3.31146 9.69435,2 14,2 h 36 c 3.90457,0 10.60165,1.28543 13.83333,-1.33334 5.62086,-4.55484 3.16667,-17.25351 3.16667,-23.66666 -4.23138,0 -12.56967,1.59973 -16,-1.16666 -2.37154,-1.91253 -2.65718,-5.41967 -4.33333,-7.833343 -2.70187,-3.89071 -6.92886,-6.53939 -11.66667,-7 -6.87201,-0.66812 -13.55739,1.08265 -17.66667,7 -1.90103,2.737493 -2.12021,6.798923 -5.33333,8.500003 -3.42361,1.8125 -10.17508,0.5 -14,0.5 m 74,0 c 0,8.87637 2.1951,20.32629 -5,27 -4.82835,4.47845 -10.88129,4 -17,4 h -36 c -6.72185,0 -13.03001,0.35828 -18,-5 -6.10658,-6.58365 -4,-17.72946 -4,-26 -12.82208,0 -32.18225,-3.81555 -41.66666,7 -9.62455,10.97537 -6.33334,28.39001 -6.33334,42 v 103 c 0,13.82321 -3.43806,31.85718 6.33334,43 9.20728,10.49954 27.23252,7 39.66666,7 h 74 c 11.80966,0 24.25378,1.142 36,0 8.1171,-0.78915 16.02554,-7.39365 18.66666,-15 2.08221,-5.99677 1.33334,-12.73752 1.33334,-19 v -33 -93 c 0,-12.36243 2.60672,-27.69177 -8,-36.66666 -10.23703,-8.66208 -27.52502,-5.33334 -40,-5.33334 m -100,82.16667 c 3.76846,-1.35911 9.991,-0.16667 14,-0.16667 10.57089,0 22.57213,-1.6156 33,0 2.91191,0.45114 5.41118,3.45329 2,5.5 -2.77705,1.66623 -8.83838,0.5 -12,0.5 h -26 c -3.19479,0 -8.00484,0.8942 -11,-0.33333 -2.55376,-1.04661 -2.6611,-4.54025 0,-5.5 m 71,0 c 3.38585,-1.09543 8.44466,-0.16667 12,-0.16667 h 28 c 2.18768,0 13.55435,-0.77773 9.5,4.66667 -1.90378,2.55651 -8.73019,1.33333 -11.5,1.33333 h -28 c -2.93689,0 -8.4113,1.05322 -11,-0.5 -2.7606,-1.65636 -1.65062,-4.47577 1,-5.33333 m -70,65.00002 c 5.81279,-1.28224 13.04099,-0.16669 19,-0.16669 8.64893,0 18.46811,-1.32185 27,0 2.91191,0.45114 5.41118,3.45331 2,5.5 -2.58871,1.55322 -8.0631,0.5 -11,0.5 h -27 c -2.87598,0 -9.43433,1.22729 -11.83333,-0.5 -2.69903,-1.9433 -0.53639,-4.81061 1.83333,-5.33331 m 70,0 c 4.19351,-1.35674 10.58885,-0.16669 15,-0.16669 10.11478,0 20.9581,-1.13147 31,0 2.53717,0.28589 6.16931,3.09808 2.83334,5.5 -2.39904,1.72729 -8.95733,0.5 -11.83334,0.5 h -27 c -2.93689,0 -8.41129,1.05322 -11,-0.5 -2.7606,-1.65637 -1.65062,-4.47577 1,-5.33331 z"
       id="path562" />
    <path
       style="fill:#000000"
       d="m 166.71919,105.37619 c -0.20889,0 -0.41778,0 -2.91884,-0.0113 -2.50107,-0.0114 -7.29413,-0.0341 -12.08727,-0.0567"
       id="path561" />
  </g>
</svg>
